<svg width="86" height="75" viewBox="0 0 86 75" fill="none" xmlns="http://www.w3.org/2000/svg">
<path fill-rule="evenodd" clip-rule="evenodd" d="M137.434 -25.1587C149.319 -21.2511 153.061 -4.71315 153.396 7.83935C153.69 18.8456 143.519 26.6792 139.089 36.7813C135.541 44.8718 135.511 54.0432 130.078 61.0108C123.459 69.4989 115.612 77.7643 105.176 80.2713C93.6677 83.0359 80.359 82.3711 70.9873 75.2061C61.7789 68.1659 62.8444 54.3294 57.6591 43.943C51.5167 31.6392 36.9959 22.6677 37.886 8.90168C38.7994 -5.2242 48.5032 -20.9184 62.1033 -24.7878C76.0862 -28.766 87.0304 -9.13787 101.544 -9.20933C114.93 -9.27525 124.736 -29.3337 137.434 -25.1587Z" fill="#FDBC64"/>
<path opacity="0.1" fill-rule="evenodd" clip-rule="evenodd" d="M124.434 -25.1587C136.319 -21.2511 140.061 -4.71315 140.396 7.83935C140.69 18.8456 130.519 26.6792 126.089 36.7813C122.541 44.8718 122.511 54.0432 117.078 61.0108C110.459 69.4989 102.612 77.7642 92.176 80.2713C80.6677 83.0359 67.359 82.3711 57.9873 75.2061C48.7789 68.1659 49.8443 54.3294 44.6591 43.943C38.5167 31.6392 23.9959 22.6677 24.886 8.90169C25.7994 -5.2242 35.5032 -20.9184 49.1033 -24.7878C63.0862 -28.766 74.0304 -9.13787 88.544 -9.20933C101.93 -9.27525 111.736 -29.3337 124.434 -25.1587Z" fill="#FDBC64"/>
</svg>
